# Hierarchical Translation and Rotation (.htr) file
# Generated by EVaRT
[Header]
FileType htr
DataType HTRS
FileVersion 1
NumSegments 23
NumFrames 4
DataFrameRate 120
EulerRotationOrder ZYX
CalibrationUnits mm
RotationUnits Degrees
GlobalAxisofGravity Y
BoneLengthAxis Y
ScaleFactor 1
[SegmentNames&Hierarchy]
#CHILD            PARENT
DaveRoot          GLOBAL
Spine1            DaveRoot
Spine2            Spine1
Spine3            Spine2
Spine4            Spine3
Neck              Spine4
Head              Neck
LClavicle         Spine4
LUpperArm         LClavicle
LLowerArm         LUpperArm
LHand             LLowerArm
RClavicle         Spine4
RUpperArm         RClavicle
RLowerArm         RUpperArm
RHand             RLowerArm
RUpperLeg         DaveRoot
RLowerLeg         RUpperLeg
RFoot             RLowerLeg
RToes             RFoot
LUpperLeg         DaveRoot
LLowerLeg         LUpperLeg
LFoot             LLowerLeg
LToes             LFoot
[BasePosition]
#SegmentName      Tx   Ty   Tz   Rx   Ry   Rz   BoneLength
DaveRoot          209.518790	1014.822220	-351.309218	15.931515	2.618173	-0.612188	100.000000
Spine1            0.000000	100.000000	0.000000	-16.793488	0.293500	-0.473802	100.000000
Spine2            0.000000	100.000000	0.000000	4.672625	0.349043	-0.357343	100.000000
Spine3            0.000000	100.000000	0.000000	10.998894	0.386292	-0.316706	100.000000
Spine4            0.000000	100.000000	0.000000	12.138707	1.462162	1.217268	100.000000
Neck              0.000000	100.000000	0.000000	12.810480	14.955418	1.620949	80.000000
Head              0.000000	80.000000	0.000000	-44.031424	-2.973179	-2.367844	200.000000
LClavicle         0.000000	100.000000	0.000000	-0.941684	-2.086145	-99.536471	200.000000
LUpperArm         0.000000	200.000000	0.000000	10.837043	12.737179	14.309854	300.000000
LLowerArm         0.000000	300.000000	0.000000	2.090205	2.175812	1.895763	200.000000
LHand             0.000000	200.000000	0.000000	-1.396534	-1.768569	8.793625	120.000000
RClavicle         0.000000	100.000000	0.000000	1.262055	-3.879913	108.124298	200.000000
RUpperArm         0.000000	200.000000	0.000000	10.866823	4.985308	-18.992585	300.000000
RLowerArm         0.000000	300.000000	0.000000	5.968673	-3.682026	-7.348670	200.000000
RHand             0.000000	200.000000	0.000000	-1.057110	-1.690862	-7.465634	120.000000
RUpperLeg         -115.911102	-10.000000	31.058285	24.909801	27.531946	-169.439912	530.000000
RLowerLeg         0.000000	530.000000	0.000000	-7.321572	0.479387	-2.520024	460.000000
RFoot             0.000000	460.000000	0.000000	82.352420	-1.863170	1.930421	130.000000
RToes             0.000000	130.000000	0.000000	17.737744	0.005479	-0.002881	100.000000
LUpperLeg         115.911102	-10.000000	31.058285	23.717246	9.590578	-171.144790	530.000000
LLowerLeg         0.000000	530.000000	0.000000	-5.150575	-3.275937	3.046484	460.000000
LFoot             0.000000	460.000000	0.000000	77.933010	-13.262104	9.769004	130.000000
LToes             0.000000	130.000000	0.000000	27.000770	-0.000000	-0.000086	100.000000
#Beginning of Data.
[DaveRoot]
#Fr	Tx	Ty	Tz	Rx	Ry	Rz	SF
897	402.828945	-27.469986	260.230057	-124.552387	-35.854160	179.731269	1.000000	
898	391.506579	-35.604503	260.642395	-124.159636	-35.799041	-179.802470	1.000000	
899	380.018909	-43.784860	260.992817	-123.826686	-35.794628	-179.261157	1.000000	
900	368.269831	-51.953076	261.212640	-123.572938	-35.821456	-178.639457	1.000000	
[Spine1]
#Fr	Tx	Ty	Tz	Rx	Ry	Rz	SF
897	0.000000	0.000000	0.000000	4.552843	-4.647678	-4.145442	1.000000	
898	0.000000	0.000000	0.000000	4.595789	-4.755180	-4.232142	1.000000	
899	0.000000	0.000000	0.000000	4.651041	-4.853691	-4.290611	1.000000	
900	0.000000	0.000000	0.000000	4.719974	-4.937430	-4.327953	1.000000	
[Spine2]
#Fr	Tx	Ty	Tz	Rx	Ry	Rz	SF
897	0.000000	0.000000	0.000000	4.552843	-4.647678	-4.145442	1.000000	
898	0.000000	0.000000	0.000000	4.595789	-4.755180	-4.232142	1.000000	
899	0.000000	0.000000	0.000000	4.651041	-4.853691	-4.290611	1.000000	
900	0.000000	0.000000	0.000000	4.719974	-4.937430	-4.327953	1.000000	
[Spine3]
#Fr	Tx	Ty	Tz	Rx	Ry	Rz	SF
897	0.000000	0.000000	0.000000	4.552843	-4.647678	-4.145442	1.000000	
898	0.000000	0.000000	0.000000	4.595789	-4.755180	-4.232142	1.000000	
899	0.000000	0.000000	0.000000	4.651041	-4.853691	-4.290611	1.000000	
900	0.000000	0.000000	0.000000	4.719974	-4.937430	-4.327953	1.000000	
[Spine4]
#Fr	Tx	Ty	Tz	Rx	Ry	Rz	SF
897	0.000000	0.000000	0.000000	4.552843	-4.647678	-4.145442	1.000000	
898	0.000000	0.000000	0.000000	4.595789	-4.755180	-4.232142	1.000000	
899	0.000000	0.000000	0.000000	4.651041	-4.853691	-4.290611	1.000000	
900	0.000000	0.000000	0.000000	4.719974	-4.937430	-4.327953	1.000000	
[Neck]
#Fr	Tx	Ty	Tz	Rx	Ry	Rz	SF
897	0.000000	0.000000	0.000000	-16.566326	22.433943	-9.459733	1.000000	
898	0.000000	0.000000	0.000000	-17.176187	22.538808	-9.648357	1.000000	
899	0.000000	0.000000	0.000000	-17.778202	22.671192	-9.874409	1.000000	
900	0.000000	0.000000	0.000000	-18.359410	22.827307	-10.132736	1.000000	
[Head]
#Fr	Tx	Ty	Tz	Rx	Ry	Rz	SF
897	0.000000	0.000000	0.000000	-16.566326	22.433943	-9.459733	1.000000	
898	0.000000	0.000000	0.000000	-17.176187	22.538808	-9.648357	1.000000	
899	0.000000	0.000000	0.000000	-17.778202	22.671192	-9.874409	1.000000	
900	0.000000	0.000000	0.000000	-18.359410	22.827307	-10.132736	1.000000	
[LClavicle]
#Fr	Tx	Ty	Tz	Rx	Ry	Rz	SF
897	0.000000	0.000000	0.000000	5.583815	-1.313992	8.282563	1.000000	
898	0.000000	0.000000	0.000000	5.158365	-1.255227	8.721952	1.000000	
899	0.000000	0.000000	0.000000	4.718607	-1.185980	9.159085	1.000000	
900	0.000000	0.000000	0.000000	4.273228	-1.107037	9.579424	1.000000	
[LUpperArm]
#Fr	Tx	Ty	Tz	Rx	Ry	Rz	SF
897	0.000000	0.000000	0.000000	30.361952	-10.506232	-3.110136	1.000000	
898	0.000000	0.000000	0.000000	29.881448	-11.250635	-3.097274	1.000000	
899	0.000000	0.000000	0.000000	29.426848	-11.913598	-3.019912	1.000000	
900	0.000000	0.000000	0.000000	28.978143	-12.495805	-2.876637	1.000000	
[LLowerArm]
#Fr	Tx	Ty	Tz	Rx	Ry	Rz	SF
897	0.000000	0.000000	0.000000	-11.840924	-0.000000	0.000000	1.000000	
898	0.000000	0.000000	0.000000	-12.125143	-0.000000	0.000000	1.000000	
899	0.000000	0.000000	0.000000	-12.479912	0.000000	0.000000	1.000000	
900	0.000000	0.000000	0.000000	-12.891838	-0.000000	0.000000	1.000000	
[LHand]
#Fr	Tx	Ty	Tz	Rx	Ry	Rz	SF
897	0.000000	0.000000	0.000000	9.708759	0.000000	-0.000000	1.000000	
898	0.000000	0.000000	0.000000	9.913740	0.000000	-0.000000	1.000000	
899	0.000000	0.000000	0.000000	10.048716	0.000000	-0.000000	1.000000	
900	0.000000	0.000000	0.000000	10.158179	0.000000	-0.000000	1.000000	
[RClavicle]
#Fr	Tx	Ty	Tz	Rx	Ry	Rz	SF
897	0.000000	0.000000	0.000000	5.941337	-0.265358	2.222880	1.000000	
898	0.000000	0.000000	0.000000	5.957947	-0.259556	2.160249	1.000000	
899	0.000000	0.000000	0.000000	5.963725	-0.245164	2.020298	1.000000	
900	0.000000	0.000000	0.000000	5.948107	-0.223837	1.822115	1.000000	
[RUpperArm]
#Fr	Tx	Ty	Tz	Rx	Ry	Rz	SF
897	0.000000	0.000000	0.000000	10.294297	28.493076	57.017982	1.000000	
898	0.000000	0.000000	0.000000	9.586470	31.058537	55.286623	1.000000	
899	0.000000	0.000000	0.000000	8.718029	33.452248	53.321719	1.000000	
900	0.000000	0.000000	0.000000	7.664337	35.567485	51.097030	1.000000	
[RLowerArm]
#Fr	Tx	Ty	Tz	Rx	Ry	Rz	SF
897	0.000000	0.000000	0.000000	9.361350	-0.000000	-0.000000	1.000000	
898	0.000000	0.000000	0.000000	9.113665	-0.000000	-0.000000	1.000000	
899	0.000000	0.000000	0.000000	8.868146	-0.000000	-0.000000	1.000000	
900	0.000000	0.000000	0.000000	8.593865	-0.000000	-0.000000	1.000000	
[RHand]
#Fr	Tx	Ty	Tz	Rx	Ry	Rz	SF
897	0.000000	0.000000	0.000000	1.922617	21.909762	-18.464234	1.000000	
898	0.000000	0.000000	0.000000	1.602035	22.870041	-19.130960	1.000000	
899	0.000000	0.000000	0.000000	1.223373	23.735269	-19.783012	1.000000	
900	0.000000	0.000000	0.000000	0.817943	24.497676	-20.439236	1.000000	
[RUpperLeg]
#Fr	Tx	Ty	Tz	Rx	Ry	Rz	SF
897	0.000000	0.000000	0.000000	19.234471	-12.614436	2.563220	1.000000	
898	0.000000	0.000000	0.000000	19.675150	-11.667449	2.529125	1.000000	
899	0.000000	0.000000	0.000000	20.080773	-10.922075	2.543046	1.000000	
900	0.000000	0.000000	0.000000	20.429643	-10.439597	2.586187	1.000000	
[RLowerLeg]
#Fr	Tx	Ty	Tz	Rx	Ry	Rz	SF
897	0.000000	0.000000	0.000000	-28.135067	0.000000	-0.000000	1.000000	
898	0.000000	0.000000	0.000000	-28.553444	-0.000000	-0.000000	1.000000	
899	0.000000	0.000000	0.000000	-28.997507	-0.000000	-0.000000	1.000000	
900	0.000000	0.000000	0.000000	-29.450288	-0.000000	-0.000000	1.000000	
[RFoot]
#Fr	Tx	Ty	Tz	Rx	Ry	Rz	SF
897	0.000000	0.000000	0.000000	7.432072	5.170467	-3.786350	1.000000	
898	0.000000	0.000000	0.000000	8.843555	5.820093	-3.215677	1.000000	
899	0.000000	0.000000	0.000000	10.181079	6.567045	-2.740583	1.000000	
900	0.000000	0.000000	0.000000	11.414068	7.396201	-2.422336	1.000000	
[RToes]
#Fr	Tx	Ty	Tz	Rx	Ry	Rz	SF
897	0.000000	0.000000	0.000000	11.221889	0.000000	0.000000	1.000000	
898	0.000000	0.000000	0.000000	10.497432	0.000000	0.000000	1.000000	
899	0.000000	0.000000	0.000000	9.698170	0.000000	0.000000	1.000000	
900	0.000000	0.000000	0.000000	8.870903	0.000000	0.000000	1.000000	
[LUpperLeg]
#Fr	Tx	Ty	Tz	Rx	Ry	Rz	SF
897	0.000000	0.000000	0.000000	43.650165	2.700223	25.925394	1.000000	
898	0.000000	0.000000	0.000000	45.505361	0.793031	25.891646	1.000000	
899	0.000000	0.000000	0.000000	47.514678	-1.254275	25.686172	1.000000	
900	0.000000	0.000000	0.000000	49.611297	-3.287924	25.416626	1.000000	
[LLowerLeg]
#Fr	Tx	Ty	Tz	Rx	Ry	Rz	SF
897	0.000000	0.000000	0.000000	-5.577790	0.000000	0.000000	1.000000	
898	0.000000	0.000000	0.000000	-8.136635	0.000000	0.000000	1.000000	
899	0.000000	0.000000	0.000000	-11.121621	0.000000	0.000000	1.000000	
900	0.000000	0.000000	0.000000	-14.427991	0.000000	0.000000	1.000000	
[LFoot]
#Fr	Tx	Ty	Tz	Rx	Ry	Rz	SF
897	0.000000	0.000000	0.000000	-7.884959	2.902051	14.921015	1.000000	
898	0.000000	0.000000	0.000000	-7.458730	3.475278	13.001835	1.000000	
899	0.000000	0.000000	0.000000	-6.916711	4.020729	10.880899	1.000000	
900	0.000000	0.000000	0.000000	-6.250193	4.418707	8.781713	1.000000	
[LToes]
#Fr	Tx	Ty	Tz	Rx	Ry	Rz	SF
897	0.000000	0.000000	0.000000	3.037888	-0.000000	-0.000000	1.000000	
898	0.000000	0.000000	0.000000	3.824013	-0.000000	-0.000000	1.000000	
899	0.000000	0.000000	0.000000	4.379465	-0.000000	-0.000000	1.000000	
900	0.000000	0.000000	0.000000	4.639665	-0.000000	-0.000000	1.000000	
